<?xml version="1.0" encoding="UTF-8" standalone="no"?>
<!-- Generator: Adobe Illustrator 19.0.0, SVG Export Plug-In . SVG Version: 6.00 Build 0)  -->

<svg
   xmlns:dc="http://purl.org/dc/elements/1.1/"
   xmlns:cc="http://creativecommons.org/ns#"
   xmlns:rdf="http://www.w3.org/1999/02/22-rdf-syntax-ns#"
   xmlns:svg="http://www.w3.org/2000/svg"
   xmlns="http://www.w3.org/2000/svg"
   xmlns:sodipodi="http://sodipodi.sourceforge.net/DTD/sodipodi-0.dtd"
   xmlns:inkscape="http://www.inkscape.org/namespaces/inkscape"
   version="1.1"
   id="Capa_1"
   x="0px"
   y="0px"
   viewBox="0 0 20 20"
   xml:space="preserve"
   inkscape:version="0.91 r13725"
   sodipodi:docname="icon-13.svg"
   width="20"
   height="20"><metadata
     id="metadata49"><rdf:RDF><cc:Work
         rdf:about=""><dc:format>image/svg+xml</dc:format><dc:type
           rdf:resource="http://purl.org/dc/dcmitype/StillImage" /><dc:title></dc:title></cc:Work></rdf:RDF></metadata><defs
     id="defs47" /><sodipodi:namedview
     pagecolor="#ffffff"
     bordercolor="#666666"
     borderopacity="1"
     objecttolerance="10"
     gridtolerance="10"
     guidetolerance="10"
     inkscape:pageopacity="0"
     inkscape:pageshadow="2"
     inkscape:window-width="1572"
     inkscape:window-height="801"
     id="namedview45"
     showgrid="false"
     inkscape:zoom="17.792479"
     inkscape:cx="15.826036"
     inkscape:cy="8.3489399"
     inkscape:window-x="521"
     inkscape:window-y="416"
     inkscape:window-maximized="0"
     inkscape:current-layer="Capa_1" /><g
     id="g3"
     transform="matrix(0.04711974,0,0,0.04711974,-0.04472114,2.6357e-5)"
     style="fill:#ffffff;fill-opacity:1"><g
       id="g5"
       style="fill:#ffffff;fill-opacity:1"><g
         id="g7"
         style="fill:#ffffff;fill-opacity:1"><circle
           cx="170.241"
           cy="374.27301"
           r="50.175999"
           id="circle9"
           style="fill:#ffffff;fill-opacity:1" /><path
           d="m 316.673,324.098 0,0 c -27.711,0 -50.176,22.465 -50.176,50.176 0,27.711 22.465,50.176 50.176,50.176 27.711,0 50.176,-22.465 50.176,-50.176 0,-27.711 -22.465,-50.176 -50.176,-50.176 z"
           id="path11"
           inkscape:connector-curvature="0"
           style="fill:#ffffff;fill-opacity:1" /><path
           d="m 402.177,272.897 -261.632,0 -5.12,-29.696 215.04,0 c 6.326,0.019 12.017,-3.843 14.336,-9.728 l 51.2,-129.024 c 3.111,-7.892 -0.766,-16.812 -8.658,-19.922 -1.808,-0.713 -3.735,-1.076 -5.678,-1.07 l -292.864,0 L 96.513,12.801 C 95.251,5.33 88.729,-0.105 81.153,0.001 l -58.88,0 c -8.483,0 -15.36,6.877 -15.36,15.36 0,8.483 6.877,15.36 15.36,15.36 l 46.08,0 44.032,260.096 c 1.262,7.471 7.784,12.906 15.36,12.8 l 274.432,0 c 8.483,0 15.36,-6.877 15.36,-15.36 0,-8.483 -6.877,-15.36 -15.36,-15.36 z"
           id="path13"
           inkscape:connector-curvature="0"
           style="fill:#ffffff;fill-opacity:1" /></g></g></g><g
     id="g15"
     transform="translate(0,-404.44901)" /><g
     id="g17"
     transform="translate(0,-404.44901)" /><g
     id="g19"
     transform="translate(0,-404.44901)" /><g
     id="g21"
     transform="translate(0,-404.44901)" /><g
     id="g23"
     transform="translate(0,-404.44901)" /><g
     id="g25"
     transform="translate(0,-404.44901)" /><g
     id="g27"
     transform="translate(0,-404.44901)" /><g
     id="g29"
     transform="translate(0,-404.44901)" /><g
     id="g31"
     transform="translate(0,-404.44901)" /><g
     id="g33"
     transform="translate(0,-404.44901)" /><g
     id="g35"
     transform="translate(0,-404.44901)" /><g
     id="g37"
     transform="translate(0,-404.44901)" /><g
     id="g39"
     transform="translate(0,-404.44901)" /><g
     id="g41"
     transform="translate(0,-404.44901)" /><g
     id="g43"
     transform="translate(0,-404.44901)" /></svg>