<?xml version="1.0" encoding="UTF-8" standalone="no"?>
<!-- Generator: Adobe Illustrator 19.0.0, SVG Export Plug-In . SVG Version: 6.00 Build 0)  -->

<svg
   xmlns:dc="http://purl.org/dc/elements/1.1/"
   xmlns:cc="http://creativecommons.org/ns#"
   xmlns:rdf="http://www.w3.org/1999/02/22-rdf-syntax-ns#"
   xmlns:svg="http://www.w3.org/2000/svg"
   xmlns="http://www.w3.org/2000/svg"
   xmlns:sodipodi="http://sodipodi.sourceforge.net/DTD/sodipodi-0.dtd"
   xmlns:inkscape="http://www.inkscape.org/namespaces/inkscape"
   version="1.1"
   id="Capa_1"
   x="0px"
   y="0px"
   viewBox="0 0 20 20"
   xml:space="preserve"
   inkscape:version="0.91 r13725"
   sodipodi:docname="icon-7.svg"
   width="20"
   height="20"><metadata
     id="metadata49"><rdf:RDF><cc:Work
         rdf:about=""><dc:format>image/svg+xml</dc:format><dc:type
           rdf:resource="http://purl.org/dc/dcmitype/StillImage" /><dc:title></dc:title></cc:Work></rdf:RDF></metadata><defs
     id="defs47" /><sodipodi:namedview
     pagecolor="#ffffff"
     bordercolor="#666666"
     borderopacity="1"
     objecttolerance="10"
     gridtolerance="10"
     guidetolerance="10"
     inkscape:pageopacity="0"
     inkscape:pageshadow="2"
     inkscape:window-width="1127"
     inkscape:window-height="776"
     id="namedview45"
     showgrid="false"
     inkscape:zoom="15.732481"
     inkscape:cx="13.231328"
     inkscape:cy="5.6786407"
     inkscape:window-x="926"
     inkscape:window-y="95"
     inkscape:window-maximized="0"
     inkscape:current-layer="Capa_1" /><g
     id="g3"
     transform="matrix(0.04066352,0,0,0.04066352,0.1760474,0.36355366)"
     style="fill:#ffffff;fill-opacity:1"><g
       id="g5"
       style="fill:#ffffff;fill-opacity:1"><path
         d="m 475.922,229.325 -144,-160 c -3.072,-3.392 -7.36,-5.312 -11.904,-5.312 l -96,0 c -6.304,0 -12.032,3.712 -14.624,9.472 -2.56,5.792 -1.504,12.544 2.72,17.216 l 134.368,149.312 -134.368,149.28 c -4.224,4.704 -5.312,11.456 -2.72,17.216 2.592,5.792 8.32,9.504 14.624,9.504 l 96,0 c 4.544,0 8.832,-1.952 11.904,-5.28 l 144,-160 c 5.472,-6.08 5.472,-15.36 0,-21.408 z"
         id="path7"
         inkscape:connector-curvature="0"
         style="fill:#ffffff;fill-opacity:1" /></g></g><g
     id="g9"
     transform="matrix(0.04066352,0,0,0.04066352,0.1760474,0.36355366)"
     style="fill:#ffffff;fill-opacity:1"><g
       id="g11"
       style="fill:#ffffff;fill-opacity:1"><path
         d="m 267.922,229.325 -144,-160 c -3.072,-3.392 -7.36,-5.312 -11.904,-5.312 l -96,0 c -6.304,0 -12.032,3.712 -14.624,9.472 -2.56,5.792 -1.504,12.544 2.72,17.216 L 138.482,240.013 4.114,389.293 c -4.224,4.704 -5.312,11.456 -2.72,17.216 2.592,5.792 8.32,9.504 14.624,9.504 l 96,0 c 4.544,0 8.832,-1.952 11.904,-5.28 l 144,-160 c 5.472,-6.08 5.472,-15.36 0,-21.408 z"
         id="path13"
         inkscape:connector-curvature="0"
         style="fill:#ffffff;fill-opacity:1" /></g></g><g
     id="g15"
     transform="translate(0,-460.026)" /><g
     id="g17"
     transform="translate(0,-460.026)" /><g
     id="g19"
     transform="translate(0,-460.026)" /><g
     id="g21"
     transform="translate(0,-460.026)" /><g
     id="g23"
     transform="translate(0,-460.026)" /><g
     id="g25"
     transform="translate(0,-460.026)" /><g
     id="g27"
     transform="translate(0,-460.026)" /><g
     id="g29"
     transform="translate(0,-460.026)" /><g
     id="g31"
     transform="translate(0,-460.026)" /><g
     id="g33"
     transform="translate(0,-460.026)" /><g
     id="g35"
     transform="translate(0,-460.026)" /><g
     id="g37"
     transform="translate(0,-460.026)" /><g
     id="g39"
     transform="translate(0,-460.026)" /><g
     id="g41"
     transform="translate(0,-460.026)" /><g
     id="g43"
     transform="translate(0,-460.026)" /></svg>